<svg width="24" height="24" viewBox="0 0 24 24" fill="none" xmlns="http://www.w3.org/2000/svg">
<path d="M19.9 20.975L13.325 14.4C12.825 14.8333 12.2417 15.1708 11.575 15.4125C10.9083 15.6542 10.2 15.775 9.45 15.775C7.65 15.775 6.125 15.15 4.875 13.9C3.625 12.65 3 11.1417 3 9.375C3 7.60833 3.625 6.1 4.875 4.85C6.125 3.6 7.64167 2.975 9.425 2.975C11.1917 2.975 12.6958 3.6 13.9375 4.85C15.1792 6.1 15.8 7.60833 15.8 9.375C15.8 10.0917 15.6833 10.7833 15.45 11.45C15.2167 12.1167 14.8667 12.7417 14.4 13.325L21 19.875L19.9 20.975ZM9.425 14.275C10.775 14.275 11.925 13.7958 12.875 12.8375C13.825 11.8792 14.3 10.725 14.3 9.375C14.3 8.025 13.825 6.87083 12.875 5.9125C11.925 4.95417 10.775 4.475 9.425 4.475C8.05833 4.475 6.89583 4.95417 5.9375 5.9125C4.97917 6.87083 4.5 8.025 4.5 9.375C4.5 10.725 4.97917 11.8792 5.9375 12.8375C6.89583 13.7958 8.05833 14.275 9.425 14.275V14.275Z" fill="black"/>
</svg>
