<svg width="24" height="24" viewBox="0 0 24 24" fill="none" xmlns="http://www.w3.org/2000/svg">
<path d="M4.5 19.5H5.6L16.675 8.42499L15.575 7.32499L4.5 18.4V19.5ZM19.85 7.34999L16.65 4.14999L17.7 3.09999C17.9833 2.81665 18.3333 2.67499 18.75 2.67499C19.1667 2.67499 19.5167 2.81665 19.8 3.09999L20.9 4.19999C21.1833 4.48332 21.325 4.83332 21.325 5.24999C21.325 5.66665 21.1833 6.01665 20.9 6.29999L19.85 7.34999ZM18.8 8.39999L6.2 21H3V17.8L15.6 5.19999L18.8 8.39999ZM16.125 7.87499L15.575 7.32499L16.675 8.42499L16.125 7.87499Z" fill="black"/>
</svg>
