<svg width="118" height="48" viewBox="0 0 118 48" fill="none" xmlns="http://www.w3.org/2000/svg">
<path d="M22.3878 14.2689L18.8985 32.5031H14.5032L12.0244 22.9263C11.9733 22.739 11.9052 22.4581 11.82 22.0835C11.7518 21.709 11.6667 21.3003 11.5644 20.8577C11.4793 20.415 11.4026 19.9979 11.3344 19.6063C11.2663 19.1977 11.2152 18.8827 11.1811 18.6614C11.1641 18.8827 11.113 19.1977 11.0278 19.6063C10.9597 19.9979 10.883 20.415 10.7978 20.8577C10.7126 21.2833 10.6274 21.6919 10.5423 22.0835C10.4571 22.4581 10.3889 22.7475 10.3378 22.9518L7.88463 32.5031H3.48931L0 14.2689H3.29683L4.97145 24.2287C5.07367 24.6203 5.1844 25.114 5.30366 25.7099C5.42291 26.3058 5.53365 26.9017 5.63586 27.4976C5.73808 28.0935 5.81474 28.5957 5.86585 29.0043C5.91696 28.5787 5.99362 28.0765 6.09584 27.4976C6.19805 26.9017 6.30027 26.3313 6.40249 25.7865C6.52174 25.2247 6.62396 24.7905 6.70914 24.4841L9.36678 14.2689H13.021L15.6787 24.4841C15.7638 24.7735 15.8575 25.1992 15.9598 25.761C16.079 26.3228 16.1897 26.9017 16.292 27.4976C16.3942 28.0935 16.4708 28.5957 16.5219 29.0043C16.5731 28.5787 16.6497 28.0765 16.7519 27.4976C16.8542 26.9017 16.9649 26.3058 17.0841 25.7099C17.2204 25.114 17.3312 24.6203 17.4163 24.2287L19.4424 14.2689H22.3878Z" fill="#27181D"/>
<path d="M40.9595 32.5031L39.6307 28.1616H32.9866L31.6578 32.5031H27.4924L33.9321 14.1922H38.6596L45.1248 32.5031H40.9595ZM37.3819 20.6789C37.2967 20.3895 37.186 20.0234 37.0497 19.5808C36.9134 19.1381 36.7771 18.6869 36.6409 18.2273C36.5046 17.7676 36.3938 17.3675 36.3086 17.027C36.2235 17.3675 36.1042 17.7931 35.9509 18.3039C35.8146 18.7976 35.6783 19.2743 35.542 19.734C35.4228 20.1767 35.3291 20.4916 35.2609 20.6789L33.9577 24.9182H38.7107L37.3819 20.6789Z" fill="#27181D"/>
<path d="M87.9718 32.3982V14.164H91.8305V29.2059H99.2412V32.3982H87.9718Z" fill="#27181D"/>
<path d="M118 32.5031H107.497V14.2689H118V17.4356H111.356V21.4451H117.54V24.6118H111.356V29.3108H118V32.5031Z" fill="#27181D"/>
<rect x="70.5098" y="22.9433" width="9.56574" height="9.5597" fill="#ED8573"/>
<rect x="57.1177" y="22.9433" width="9.56574" height="9.5597" fill="#F0975E"/>
<rect x="70.5098" y="9.55969" width="9.56574" height="9.55972" fill="#F0975E"/>
<rect x="57.1177" y="9.55969" width="9.56574" height="9.55972" fill="#F0975E"/>
<path fill-rule="evenodd" clip-rule="evenodd" d="M57.1178 0H53.2915V5.73581H47.552V9.55969H53.2915V19.1195H47.552V22.9433H53.2915V32.503H57.1178V22.9433H66.6835V32.503H70.5098V22.9433H80.0755V19.1195H70.5098V9.55969H80.0755V5.73581H70.5098V0H66.6835V5.73581H57.1178V0ZM66.6835 19.1195V9.55969H57.1178V19.1195H66.6835Z" fill="#27181D"/>
<path d="M34.3684 45.5855C34.3684 46.3207 34.1012 46.9088 33.5669 47.3499C33.0403 47.7833 32.2892 48 31.3135 48C30.4385 48 29.6564 47.8336 28.9672 47.5008V45.8641C29.3621 46.0343 29.7686 46.193 30.1868 46.34C30.6127 46.4793 31.0347 46.549 31.4529 46.549C31.8865 46.549 32.1924 46.4677 32.3705 46.3052C32.5564 46.1349 32.6493 45.9221 32.6493 45.6667C32.6493 45.4578 32.5757 45.2798 32.4286 45.1328C32.2892 44.9857 32.0995 44.8503 31.8594 44.7265C31.6194 44.5949 31.3445 44.4556 31.0347 44.3086C30.8411 44.2157 30.6321 44.1074 30.4075 43.9836C30.1829 43.852 29.9661 43.6933 29.757 43.5076C29.5557 43.3141 29.3892 43.082 29.2576 42.8111C29.1259 42.5403 29.0601 42.2152 29.0601 41.836C29.0601 41.0931 29.3118 40.5166 29.8151 40.1064C30.3184 39.6885 31.0038 39.4796 31.871 39.4796C32.3047 39.4796 32.7151 39.5299 33.1023 39.6305C33.4972 39.7311 33.9076 39.8742 34.3335 40.06L33.7644 41.4297C33.3849 41.275 33.0442 41.155 32.7422 41.0699C32.4402 40.9848 32.1305 40.9422 31.813 40.9422C31.48 40.9422 31.2245 41.0196 31.0463 41.1744C30.8682 41.3291 30.7792 41.5304 30.7792 41.778C30.7792 42.0721 30.9108 42.3042 31.1741 42.4745C31.4374 42.6447 31.8285 42.8537 32.3473 43.1013C32.7732 43.3025 33.1333 43.5115 33.4275 43.7282C33.7295 43.9449 33.9618 44.2002 34.1245 44.4943C34.2871 44.7884 34.3684 45.1521 34.3684 45.5855Z" fill="#27181D"/>
<path d="M44.8779 47.8839H43.124V41.0583H40.8706V39.5956H47.1313V41.0583H44.8779V47.8839Z" fill="#27181D"/>
<path d="M60.9666 44.9586C60.9666 45.5313 60.8389 46.0498 60.5833 46.5141C60.3355 46.9707 59.9561 47.3345 59.445 47.6053C58.9416 47.8684 58.3028 48 57.5284 48C56.4288 48 55.5925 47.7214 55.0195 47.1642C54.4464 46.5993 54.1599 45.8563 54.1599 44.9354V39.5956H55.9139V44.6684C55.9139 45.3495 56.0532 45.8293 56.332 46.1079C56.6108 46.3865 57.0251 46.5258 57.5749 46.5258C58.1479 46.5258 58.5622 46.3748 58.8178 46.073C59.081 45.7712 59.2127 45.2992 59.2127 44.6568V39.5956H60.9666V44.9586Z" fill="#27181D"/>
<path d="M75.6819 43.6585C75.6819 45.0592 75.2831 46.1156 74.4855 46.8276C73.6956 47.5318 72.5844 47.8839 71.1518 47.8839H68.8055V39.5956H71.4074C72.2747 39.5956 73.0258 39.7504 73.6608 40.06C74.3035 40.3695 74.7991 40.8261 75.1476 41.4297C75.5038 42.0256 75.6819 42.7686 75.6819 43.6585ZM73.8582 43.705C73.8582 42.784 73.6569 42.1108 73.2542 41.6851C72.8516 41.2518 72.2669 41.0351 71.5003 41.0351H70.5594V46.4329H71.3144C73.0103 46.4329 73.8582 45.5236 73.8582 43.705Z" fill="#27181D"/>
<path d="M84.6634 48H82.9327V39.468H84.6634V48Z" fill="#27181D"/>
<path d="M98.9237 43.7282C98.9237 44.5872 98.7804 45.3378 98.4939 45.9802C98.2151 46.6148 97.7854 47.11 97.2046 47.466C96.6238 47.822 95.8804 48 94.9744 48C94.0761 48 93.3327 47.822 92.7442 47.466C92.1634 47.11 91.7298 46.6109 91.4433 45.9686C91.1645 45.3262 91.0251 44.5756 91.0251 43.7166C91.0251 42.8576 91.1645 42.1108 91.4433 41.4762C91.7298 40.8416 92.1634 40.3502 92.7442 40.0019C93.3327 39.6459 94.08 39.468 94.986 39.468C95.8843 39.468 96.6238 39.6459 97.2046 40.0019C97.7854 40.3502 98.2151 40.8455 98.4939 41.4878C98.7804 42.1224 98.9237 42.8692 98.9237 43.7282ZM92.872 43.7282C92.872 44.5949 93.0385 45.2798 93.3714 45.7828C93.7044 46.2781 94.2387 46.5258 94.9744 46.5258C95.7255 46.5258 96.2637 46.2781 96.589 45.7828C96.9142 45.2798 97.0768 44.5949 97.0768 43.7282C97.0768 42.8537 96.9142 42.1688 96.589 41.6735C96.2637 41.1782 95.7294 40.9306 94.986 40.9306C94.2426 40.9306 93.7044 41.1782 93.3714 41.6735C93.0385 42.1688 92.872 42.8537 92.872 43.7282Z" fill="#27181D"/>
</svg>
